<svg width="627" height="199" viewBox="0 0 627 199" fill="none" xmlns="http://www.w3.org/2000/svg">
<rect width="627" height="199" fill="white"/>
<path d="M142 76.1385C142 96.3829 116.48 132.277 85 132.277C53.5198 132.277 31.5894 106.72 28 76.1385C28 43.9773 53.5198 20 85 20C116.48 20 142 45.1341 142 76.1385Z" fill="#673AB7"/>
<path d="M87.3658 182.043C85.4124 185.48 80.4311 185.398 78.5925 181.898L37.5914 103.852C35.8423 100.522 38.2569 96.5265 42.0177 96.5265L127.377 96.5265C131.211 96.5265 133.618 100.664 131.724 103.997L87.3658 182.043Z" fill="#673AB7"/>
<circle cx="85.0535" cy="75.7202" r="20.3879" fill="white"/>
<path d="M195.409 90.3523V78.1818H252.75V90.3523H231.375V148H216.784V90.3523H195.409ZM256.483 148V95.6364H270.562V104.773H271.108C272.063 101.523 273.665 99.0682 275.915 97.4091C278.165 95.7273 280.756 94.8864 283.688 94.8864C284.415 94.8864 285.199 94.9318 286.04 95.0227C286.881 95.1136 287.619 95.2386 288.256 95.3977V108.284C287.574 108.08 286.631 107.898 285.426 107.739C284.222 107.58 283.119 107.5 282.119 107.5C279.983 107.5 278.074 107.966 276.392 108.898C274.733 109.807 273.415 111.08 272.438 112.716C271.483 114.352 271.006 116.239 271.006 118.375V148H256.483ZM295.764 148V95.6364H310.287V148H295.764ZM303.06 88.8864C300.901 88.8864 299.048 88.1705 297.503 86.7386C295.98 85.2841 295.219 83.5455 295.219 81.5227C295.219 79.5227 295.98 77.8068 297.503 76.375C299.048 74.9205 300.901 74.1932 303.06 74.1932C305.219 74.1932 307.06 74.9205 308.582 76.375C310.128 77.8068 310.901 79.5227 310.901 81.5227C310.901 83.5455 310.128 85.2841 308.582 86.7386C307.06 88.1705 305.219 88.8864 303.06 88.8864Z" fill="#673AB7"/>
<path d="M360.068 98.2614C359.795 95.5114 358.625 93.375 356.557 91.8523C354.489 90.3295 351.682 89.5682 348.136 89.5682C345.727 89.5682 343.693 89.9091 342.034 90.5909C340.375 91.25 339.102 92.1705 338.216 93.3523C337.352 94.5341 336.92 95.875 336.92 97.375C336.875 98.625 337.136 99.7159 337.705 100.648C338.295 101.58 339.102 102.386 340.125 103.068C341.148 103.727 342.33 104.307 343.67 104.807C345.011 105.284 346.443 105.693 347.966 106.034L354.239 107.534C357.284 108.216 360.08 109.125 362.625 110.261C365.17 111.398 367.375 112.795 369.239 114.455C371.102 116.114 372.545 118.068 373.568 120.318C374.614 122.568 375.148 125.148 375.17 128.057C375.148 132.33 374.057 136.034 371.898 139.17C369.761 142.284 366.67 144.705 362.625 146.432C358.602 148.136 353.75 148.989 348.068 148.989C342.432 148.989 337.523 148.125 333.341 146.398C329.182 144.67 325.932 142.114 323.591 138.727C321.273 135.318 320.057 131.102 319.943 126.08H334.227C334.386 128.42 335.057 130.375 336.239 131.943C337.443 133.489 339.045 134.659 341.045 135.455C343.068 136.227 345.352 136.614 347.898 136.614C350.398 136.614 352.568 136.25 354.409 135.523C356.273 134.795 357.716 133.784 358.739 132.489C359.761 131.193 360.273 129.705 360.273 128.023C360.273 126.455 359.807 125.136 358.875 124.068C357.966 123 356.625 122.091 354.852 121.341C353.102 120.591 350.955 119.909 348.409 119.295L340.807 117.386C334.92 115.955 330.273 113.716 326.864 110.67C323.455 107.625 321.761 103.523 321.784 98.3636C321.761 94.1364 322.886 90.4432 325.159 87.2841C327.455 84.125 330.602 81.6591 334.602 79.8864C338.602 78.1136 343.148 77.2273 348.239 77.2273C353.42 77.2273 357.943 78.1136 361.807 79.8864C365.693 81.6591 368.716 84.125 370.875 87.2841C373.034 90.4432 374.148 94.1023 374.216 98.2614H360.068ZM399.759 148.989C396.418 148.989 393.44 148.409 390.827 147.25C388.213 146.068 386.145 144.33 384.622 142.034C383.122 139.716 382.372 136.83 382.372 133.375C382.372 130.466 382.906 128.023 383.974 126.045C385.043 124.068 386.497 122.477 388.338 121.273C390.179 120.068 392.27 119.159 394.611 118.545C396.974 117.932 399.452 117.5 402.043 117.25C405.088 116.932 407.543 116.636 409.406 116.364C411.27 116.068 412.622 115.636 413.463 115.068C414.304 114.5 414.724 113.659 414.724 112.545V112.341C414.724 110.182 414.043 108.511 412.679 107.33C411.338 106.148 409.429 105.557 406.952 105.557C404.338 105.557 402.259 106.136 400.713 107.295C399.168 108.432 398.145 109.864 397.645 111.591L384.213 110.5C384.895 107.318 386.236 104.568 388.236 102.25C390.236 99.9091 392.815 98.1136 395.974 96.8636C399.156 95.5909 402.838 94.9545 407.02 94.9545C409.929 94.9545 412.713 95.2955 415.372 95.9773C418.054 96.6591 420.429 97.7159 422.497 99.1477C424.588 100.58 426.236 102.42 427.44 104.67C428.645 106.898 429.247 109.568 429.247 112.682V148H415.474V140.739H415.065C414.224 142.375 413.099 143.818 411.69 145.068C410.281 146.295 408.588 147.261 406.611 147.966C404.634 148.648 402.349 148.989 399.759 148.989ZM403.918 138.966C406.054 138.966 407.94 138.545 409.577 137.705C411.213 136.841 412.497 135.682 413.429 134.227C414.361 132.773 414.827 131.125 414.827 129.284V123.727C414.372 124.023 413.747 124.295 412.952 124.545C412.179 124.773 411.304 124.989 410.327 125.193C409.349 125.375 408.372 125.545 407.395 125.705C406.418 125.841 405.531 125.966 404.736 126.08C403.031 126.33 401.543 126.727 400.27 127.273C398.997 127.818 398.009 128.557 397.304 129.489C396.599 130.398 396.247 131.534 396.247 132.898C396.247 134.875 396.963 136.386 398.395 137.432C399.849 138.455 401.69 138.966 403.918 138.966ZM453.673 132.932L453.707 115.511H455.821L472.594 95.6364H489.264L466.73 121.955H463.287L453.673 132.932ZM440.514 148V78.1818H455.037V148H440.514ZM473.241 148L457.832 125.193L467.514 114.932L490.253 148H473.241ZM511.321 148.989C507.98 148.989 505.003 148.409 502.389 147.25C499.776 146.068 497.707 144.33 496.185 142.034C494.685 139.716 493.935 136.83 493.935 133.375C493.935 130.466 494.469 128.023 495.537 126.045C496.605 124.068 498.06 122.477 499.901 121.273C501.741 120.068 503.832 119.159 506.173 118.545C508.537 117.932 511.014 117.5 513.605 117.25C516.651 116.932 519.105 116.636 520.969 116.364C522.832 116.068 524.185 115.636 525.026 115.068C525.866 114.5 526.287 113.659 526.287 112.545V112.341C526.287 110.182 525.605 108.511 524.241 107.33C522.901 106.148 520.991 105.557 518.514 105.557C515.901 105.557 513.821 106.136 512.276 107.295C510.73 108.432 509.707 109.864 509.207 111.591L495.776 110.5C496.457 107.318 497.798 104.568 499.798 102.25C501.798 99.9091 504.378 98.1136 507.537 96.8636C510.719 95.5909 514.401 94.9545 518.582 94.9545C521.491 94.9545 524.276 95.2955 526.935 95.9773C529.616 96.6591 531.991 97.7159 534.06 99.1477C536.151 100.58 537.798 102.42 539.003 104.67C540.207 106.898 540.81 109.568 540.81 112.682V148H527.037V140.739H526.628C525.787 142.375 524.662 143.818 523.253 145.068C521.844 146.295 520.151 147.261 518.173 147.966C516.196 148.648 513.912 148.989 511.321 148.989ZM515.48 138.966C517.616 138.966 519.503 138.545 521.139 137.705C522.776 136.841 524.06 135.682 524.991 134.227C525.923 132.773 526.389 131.125 526.389 129.284V123.727C525.935 124.023 525.31 124.295 524.514 124.545C523.741 124.773 522.866 124.989 521.889 125.193C520.912 125.375 519.935 125.545 518.957 125.705C517.98 125.841 517.094 125.966 516.298 126.08C514.594 126.33 513.105 126.727 511.832 127.273C510.56 127.818 509.571 128.557 508.866 129.489C508.162 130.398 507.81 131.534 507.81 132.898C507.81 134.875 508.526 136.386 509.957 137.432C511.412 138.455 513.253 138.966 515.48 138.966ZM559.168 167.636C557.327 167.636 555.599 167.489 553.986 167.193C552.395 166.92 551.077 166.568 550.031 166.136L553.304 155.295C555.009 155.818 556.543 156.102 557.906 156.148C559.293 156.193 560.486 155.875 561.486 155.193C562.509 154.511 563.338 153.352 563.974 151.716L564.827 149.5L546.043 95.6364H561.315L572.156 134.091H572.702L583.645 95.6364H599.02L578.668 153.659C577.69 156.477 576.361 158.932 574.679 161.023C573.02 163.136 570.918 164.761 568.372 165.898C565.827 167.057 562.759 167.636 559.168 167.636Z" fill="#E49B0B"/>
</svg>
